<svg width="19" height="18" viewBox="0 0 19 18" fill="none" xmlns="http://www.w3.org/2000/svg">
<g clip-path="url(#clip0_2405_9400)">
<path d="M3.94391 3.61969H17.1718L15.5183 10.7848H5.5974M15.5183 12.9895H6.14856L3.39275 1.41504H1.73926M15.5183 15.1941C15.5183 15.8029 15.0248 16.2964 14.416 16.2964C13.8072 16.2964 13.3137 15.8029 13.3137 15.1941C13.3137 14.5853 13.8072 14.0918 14.416 14.0918C15.0248 14.0918 15.5183 14.5853 15.5183 15.1941ZM8.35321 15.1941C8.35321 15.8029 7.85968 16.2964 7.25089 16.2964C6.64209 16.2964 6.14856 15.8029 6.14856 15.1941C6.14856 14.5853 6.64209 14.0918 7.25089 14.0918C7.85968 14.0918 8.35321 14.5853 8.35321 15.1941Z" stroke="#A2A2A2" stroke-width="1.10233" stroke-linecap="round" stroke-linejoin="round"/>
</g>
<defs>
<clipPath id="clip0_2405_9400">
<rect width="17.6372" height="17.6372" fill="white" transform="translate(0.637695 0.314941)"/>
</clipPath>
</defs>
</svg>
