<svg width="20" height="19" viewBox="0 0 20 19" fill="none" xmlns="http://www.w3.org/2000/svg">
<path d="M11.5406 9.35517L7.32471 5.13924C7.24046 5.06251 7.17245 4.96965 7.12472 4.86617C7.07698 4.76269 7.0505 4.65068 7.04683 4.53678C7.04316 4.42288 7.06238 4.3094 7.10334 4.20306C7.14431 4.09672 7.2062 3.99968 7.28534 3.91768C7.36448 3.83568 7.45927 3.7704 7.5641 3.72569C7.66892 3.68098 7.78165 3.65776 7.89561 3.65739C8.00957 3.65703 8.12244 3.67953 8.22755 3.72357C8.33266 3.7676 8.42786 3.83228 8.50753 3.91377L8.52828 3.93452L13.3471 8.75223C13.5069 8.912 13.5966 9.12867 13.5966 9.35459C13.5966 9.58051 13.5069 9.79718 13.3471 9.95695L8.52943 14.7747C8.45169 14.8551 8.35886 14.9195 8.25625 14.9641C8.15363 15.0087 8.04324 15.0326 7.93137 15.0345C7.8195 15.0365 7.70835 15.0163 7.60426 14.9753C7.50017 14.9343 7.40518 14.8732 7.32471 14.7954C7.24425 14.7177 7.17988 14.6248 7.13529 14.5222C7.0907 14.4196 7.06676 14.3092 7.06483 14.1974C7.06291 14.0855 7.08303 13.9743 7.12406 13.8702C7.16509 13.7662 7.22622 13.6712 7.30396 13.5907L7.32471 13.5699L11.5406 9.35517Z" fill="black" stroke="black" stroke-width="0.576419"/>
</svg>
