<svg width="43" height="43" viewBox="0 0 43 43" fill="none" xmlns="http://www.w3.org/2000/svg">
<rect x="0.86084" width="42.1393" height="42.1393" rx="21.0696" fill="white"/>
<g clip-path="url(#clip0_2405_9366)">
<path d="M12.8267 25.0275C12.8682 25.0275 12.9034 24.9933 12.9094 24.9451L13.1355 23.1534L12.9101 21.3209C12.9034 21.2727 12.8682 21.2383 12.8267 21.2383C12.784 21.2383 12.7476 21.2735 12.742 21.3209L12.5444 23.1534L12.742 24.9445C12.7476 24.9926 12.784 25.0275 12.8267 25.0275Z" fill="#2B2B2B"/>
<path d="M12.0812 24.3437C12.1221 24.3437 12.1552 24.3119 12.1612 24.2644L12.3364 23.151L12.1612 22.0168C12.1551 21.9708 12.1221 21.9375 12.0812 21.9375C12.0386 21.9375 12.0055 21.9708 11.9995 22.0174L11.853 23.1511L11.9995 24.2642C12.0055 24.3113 12.0386 24.3437 12.0812 24.3437Z" fill="#2B2B2B"/>
<path d="M13.7176 20.9797C13.7122 20.9214 13.6696 20.8789 13.6166 20.8789C13.5641 20.8789 13.5214 20.9214 13.5165 20.9797L13.3276 23.1532L13.5165 25.2475C13.5214 25.3054 13.5641 25.3474 13.6166 25.3474C13.6696 25.3474 13.7122 25.3054 13.7176 25.2475L13.9312 23.1532L13.7176 20.9797Z" fill="#2B2B2B"/>
<path d="M14.417 25.4303C14.4789 25.4303 14.5291 25.3793 14.5351 25.3127L14.737 23.1525L14.5351 20.9183C14.5291 20.8512 14.4789 20.8008 14.417 20.8008C14.3542 20.8008 14.3033 20.8512 14.299 20.9186L14.1206 23.1525L14.299 25.3127C14.3033 25.3794 14.3542 25.4303 14.417 25.4303Z" fill="#2B2B2B"/>
<path d="M15.2227 25.4658C15.2949 25.4658 15.3528 25.4081 15.3588 25.3307L15.3581 25.3313L15.5482 23.1529L15.3581 21.08C15.3527 21.004 15.2949 20.9453 15.2227 20.9453C15.1495 20.9453 15.0919 21.004 15.0875 21.0806L14.9194 23.153L15.0875 25.3308C15.0919 25.4081 15.1495 25.4658 15.2227 25.4658Z" fill="#2B2B2B"/>
<path d="M16.3641 23.153L16.1857 19.7825C16.1807 19.697 16.1142 19.6289 16.0325 19.6289C15.9514 19.6289 15.885 19.697 15.88 19.7825L15.7222 23.153L15.88 25.3308C15.885 25.4166 15.9514 25.4838 16.0325 25.4838C16.1142 25.4838 16.1807 25.4166 16.1857 25.3308V25.3314L16.3641 23.153Z" fill="#2B2B2B"/>
<path d="M16.8505 25.4895C16.9404 25.4895 17.0151 25.4148 17.0193 25.3196V25.321L17.186 23.1556L17.0193 19.0136C17.0151 18.9184 16.9404 18.8438 16.8505 18.8438C16.7584 18.8438 16.6845 18.9184 16.6795 19.0136L16.5327 23.1556L16.6802 25.3202C16.6845 25.4148 16.7584 25.4895 16.8505 25.4895Z" fill="#2B2B2B"/>
<path d="M17.6729 18.4805C17.5716 18.4805 17.4899 18.5636 17.4857 18.6685L17.3491 23.1561L17.4857 25.298C17.4899 25.4023 17.5716 25.485 17.6729 25.485C17.774 25.485 17.8563 25.403 17.8599 25.2977V25.2988L18.0149 23.1561L17.8599 18.6685C17.8563 18.563 17.7739 18.4805 17.6729 18.4805Z" fill="#2B2B2B"/>
<path d="M18.5057 25.4893C18.6169 25.4893 18.7055 25.3995 18.7097 25.284V25.2852L18.853 23.1561L18.7097 18.5178C18.7055 18.4027 18.6169 18.3125 18.5057 18.3125C18.3938 18.3125 18.3038 18.4027 18.3021 18.5178L18.1733 23.1561L18.3021 25.2852C18.3038 25.3995 18.3938 25.4893 18.5057 25.4893Z" fill="#2B2B2B"/>
<path d="M19.3431 25.4875C19.4632 25.4875 19.5606 25.3892 19.5642 25.2646V25.2665L19.6961 23.1569L19.5642 18.6365C19.5606 18.5119 19.4632 18.4141 19.3431 18.4141C19.2222 18.4141 19.1248 18.5119 19.1213 18.6365L19.0054 23.1569L19.122 25.2655C19.1248 25.3892 19.2222 25.4875 19.3431 25.4875Z" fill="#2B2B2B"/>
<path d="M20.5432 23.1541L20.4238 18.7985C20.4209 18.6641 20.3157 18.5586 20.1853 18.5586C20.0545 18.5586 19.9492 18.6641 19.9464 18.7994L19.8394 23.1541L19.9464 25.2499C19.9492 25.3832 20.0544 25.4888 20.1853 25.4888C20.3157 25.4888 20.4209 25.3832 20.4238 25.248V25.2499L20.5432 23.1541Z" fill="#2B2B2B"/>
<path d="M21.0353 25.4928C21.174 25.4928 21.2888 25.3775 21.2909 25.2357V25.2368L21.3993 23.1554L21.2909 17.9723C21.2889 17.83 21.174 17.7148 21.0353 17.7148C20.8967 17.7148 20.7823 17.8305 20.7794 17.9731L20.6831 23.1533L20.7794 25.2369C20.7823 25.3775 20.8967 25.4928 21.0353 25.4928Z" fill="#2B2B2B"/>
<path d="M21.8832 17.2266C21.7335 17.2266 21.612 17.3508 21.6095 17.5022L21.4976 23.1553L21.6102 25.206C21.612 25.3555 21.7336 25.4793 21.8832 25.4793C22.0307 25.4793 22.1544 25.3554 22.1551 25.2035V25.206L22.2774 23.1553L22.1551 17.5022C22.1544 17.3502 22.0307 17.2266 21.8832 17.2266Z" fill="#2B2B2B"/>
<path d="M22.6563 25.4961C22.6623 25.4966 29.4832 25.4999 29.527 25.4999C30.8964 25.4999 32.0061 24.3765 32.0061 22.9903C32.0061 21.6048 30.8963 20.4812 29.527 20.4812C29.1871 20.4812 28.8633 20.5507 28.568 20.6765C28.3717 18.4145 26.4979 16.6406 24.212 16.6406C23.6532 16.6406 23.1083 16.7523 22.6271 16.9408C22.4398 17.0141 22.3897 17.0896 22.3882 17.2359V25.1992C22.3903 25.353 22.5076 25.4809 22.6563 25.4961Z" fill="#2B2B2B"/>
</g>
<defs>
<clipPath id="clip0_2405_9366">
<rect width="20.1536" height="20.1536" fill="white" transform="translate(11.853 10.9922)"/>
</clipPath>
</defs>
</svg>
