<svg width="107" height="19" viewBox="0 0 107 19" fill="none" xmlns="http://www.w3.org/2000/svg">
<path d="M9.69079 1.8076C9.79496 1.48701 10.2485 1.48701 10.3527 1.8076L12.1702 7.40129C12.2168 7.54466 12.3504 7.64173 12.5011 7.64173H18.3827C18.7198 7.64173 18.8599 8.07309 18.5872 8.27123L13.8289 11.7283C13.707 11.8169 13.6559 11.974 13.7025 12.1174L15.52 17.711C15.6242 18.0316 15.2573 18.2982 14.9845 18.1001L10.2263 14.643C10.1043 14.5544 9.93916 14.5544 9.8172 14.643L5.05893 18.1001C4.78621 18.2982 4.41928 18.0316 4.52345 17.711L6.34095 12.1174C6.38753 11.974 6.3365 11.8169 6.21454 11.7283L1.45627 8.27123C1.18355 8.07309 1.32371 7.64173 1.6608 7.64173H7.54235C7.6931 7.64173 7.82671 7.54466 7.87329 7.40129L9.69079 1.8076Z" fill="white"/>
<path d="M31.3383 1.8076C31.4424 1.48701 31.896 1.48701 32.0001 1.8076L33.8176 7.40129C33.8642 7.54466 33.9978 7.64173 34.1486 7.64173H40.0301C40.3672 7.64173 40.5074 8.07309 40.2347 8.27123L35.4764 11.7283C35.3544 11.8169 35.3034 11.974 35.35 12.1174L37.1675 17.711C37.2716 18.0316 36.9047 18.2982 36.632 18.1001L31.8737 14.643C31.7518 14.5544 31.5866 14.5544 31.4647 14.643L26.7064 18.1001C26.4337 18.2982 26.0667 18.0316 26.1709 17.711L27.9884 12.1174C28.035 11.974 27.984 11.8169 27.862 11.7283L23.1037 8.27123C22.831 8.07309 22.9712 7.64173 23.3083 7.64173H29.1898C29.3406 7.64173 29.4742 7.54466 29.5208 7.40129L31.3383 1.8076Z" fill="white"/>
<path d="M52.9857 1.8076C53.0899 1.48701 53.5434 1.48701 53.6476 1.8076L55.4651 7.40129C55.5117 7.54466 55.6453 7.64173 55.796 7.64173H61.6776C62.0147 7.64173 62.1548 8.07309 61.8821 8.27123L57.1239 11.7283C57.0019 11.8169 56.9509 11.974 56.9974 12.1174L58.8149 17.711C58.9191 18.0316 58.5522 18.2982 58.2795 18.1001L53.5212 14.643C53.3992 14.5544 53.2341 14.5544 53.1121 14.643L48.3538 18.1001C48.0811 18.2982 47.7142 18.0316 47.8184 17.711L49.6359 12.1174C49.6825 11.974 49.6314 11.8169 49.5095 11.7283L44.7512 8.27123C44.4785 8.07309 44.6186 7.64173 44.9557 7.64173H50.8373C50.988 7.64173 51.1216 7.54466 51.1682 7.40129L52.9857 1.8076Z" fill="white"/>
<path d="M74.6332 1.8076C74.7373 1.48701 75.1909 1.48701 75.2951 1.8076L77.1126 7.40129C77.1591 7.54466 77.2928 7.64173 77.4435 7.64173H83.3251C83.6621 7.64173 83.8023 8.07309 83.5296 8.27123L78.7713 11.7283C78.6494 11.8169 78.5983 11.974 78.6449 12.1174L80.4624 17.711C80.5666 18.0316 80.1996 18.2982 79.9269 18.1001L75.1687 14.643C75.0467 14.5544 74.8815 14.5544 74.7596 14.643L70.0013 18.1001C69.7286 18.2982 69.3617 18.0316 69.4658 17.711L71.2833 12.1174C71.3299 11.974 71.2789 11.8169 71.1569 11.7283L66.3986 8.27123C66.1259 8.07309 66.2661 7.64173 66.6032 7.64173H72.4847C72.6355 7.64173 72.7691 7.54466 72.8157 7.40129L74.6332 1.8076Z" fill="white"/>
<path d="M96.2806 1.8076C96.3848 1.48701 96.8384 1.48701 96.9425 1.8076L98.76 7.40129C98.8066 7.54466 98.9402 7.64173 99.091 7.64173H104.973C105.31 7.64173 105.45 8.07309 105.177 8.27123L100.419 11.7283C100.297 11.8169 100.246 11.974 100.292 12.1174L102.11 17.711C102.214 18.0316 101.847 18.2982 101.574 18.1001L96.8161 14.643C96.6942 14.5544 96.529 14.5544 96.407 14.643L91.6488 18.1001C91.3761 18.2982 91.0091 18.0316 91.1133 17.711L92.9308 12.1174C92.9774 11.974 92.9263 11.8169 92.8044 11.7283L88.0461 8.27123C87.7734 8.07309 87.9136 7.64173 88.2506 7.64173H94.1322C94.2829 7.64173 94.4166 7.54466 94.4631 7.40129L96.2806 1.8076Z" fill="white"/>
</svg>
