<svg width="25" height="25" viewBox="0 0 25 25" fill="none" xmlns="http://www.w3.org/2000/svg">
<path d="M12.7368 2.82898C10.8085 2.82898 8.92339 3.40081 7.32001 4.47215C5.71663 5.54349 4.46695 7.06624 3.729 8.84782C2.99104 10.6294 2.79796 12.5898 3.17416 14.4811C3.55037 16.3724 4.47897 18.1097 5.84253 19.4733C7.20609 20.8368 8.94338 21.7654 10.8347 22.1416C12.726 22.5178 14.6864 22.3248 16.468 21.5868C18.2496 20.8489 19.7723 19.5992 20.8436 17.9958C21.915 16.3924 22.4868 14.5073 22.4868 12.579C22.4841 9.99396 21.456 7.51559 19.6281 5.6877C17.8002 3.85982 15.3218 2.83171 12.7368 2.82898ZM17.0174 10.8596L11.7674 16.1096C11.6978 16.1793 11.6151 16.2347 11.524 16.2724C11.433 16.3101 11.3354 16.3296 11.2368 16.3296C11.1383 16.3296 11.0407 16.3101 10.9496 16.2724C10.8586 16.2347 10.7759 16.1793 10.7062 16.1096L8.4562 13.8596C8.31546 13.7189 8.2364 13.528 8.2364 13.329C8.2364 13.13 8.31546 12.9391 8.4562 12.7984C8.59693 12.6576 8.7878 12.5786 8.98682 12.5786C9.18584 12.5786 9.37672 12.6576 9.51745 12.7984L11.2368 14.5187L15.9562 9.79835C16.0259 9.72867 16.1086 9.6734 16.1996 9.63568C16.2907 9.59797 16.3883 9.57856 16.4868 9.57856C16.5854 9.57856 16.6829 9.59797 16.774 9.63568C16.865 9.6734 16.9478 9.72867 17.0174 9.79835C17.0871 9.86804 17.1424 9.95076 17.1801 10.0418C17.2178 10.1329 17.2372 10.2304 17.2372 10.329C17.2372 10.4275 17.2178 10.5251 17.1801 10.6162C17.1424 10.7072 17.0871 10.7899 17.0174 10.8596Z" fill="#01AB31"/>
</svg>
