<svg width="19" height="19" viewBox="0 0 19 19" fill="none" xmlns="http://www.w3.org/2000/svg">
<path d="M13.7169 1.13672C12.0753 1.13672 10.6381 1.87809 9.74219 3.13125C8.84629 1.87809 7.40904 1.13672 5.76749 1.13672C4.46079 1.13827 3.20803 1.68412 2.28405 2.65452C1.36008 3.62493 0.84034 4.94064 0.838867 6.31299C0.838867 12.1572 9.08954 16.8876 9.44091 17.083C9.53351 17.1353 9.63703 17.1627 9.74219 17.1627C9.84735 17.1627 9.95086 17.1353 10.0435 17.083C10.3948 16.8876 18.6455 12.1572 18.6455 6.31299C18.644 4.94064 18.1243 3.62493 17.2003 2.65452C16.2763 1.68412 15.0236 1.13827 13.7169 1.13672ZM9.74219 15.7305C8.29063 14.8422 2.11077 10.7955 2.11077 6.31299C2.11203 5.29485 2.4977 4.31878 3.18319 3.59884C3.86869 2.8789 4.79806 2.47386 5.76749 2.47253C7.31365 2.47253 8.61178 3.33747 9.15393 4.72672C9.20185 4.84922 9.28335 4.95399 9.38809 5.02773C9.49284 5.10147 9.61609 5.14084 9.74219 5.14084C9.86829 5.14084 9.99154 5.10147 10.0963 5.02773C10.201 4.95399 10.2825 4.84922 10.3304 4.72672C10.8726 3.33497 12.1707 2.47253 13.7169 2.47253C14.6863 2.47386 15.6157 2.8789 16.3012 3.59884C16.9867 4.31878 17.3723 5.29485 17.3736 6.31299C17.3736 10.7888 11.1922 14.8413 9.74219 15.7305Z" fill="#959595"/>
</svg>
