<svg width="621" height="384" viewBox="0 0 621 384" fill="none" xmlns="http://www.w3.org/2000/svg">
<path d="M573.073 125.648C573.533 126.106 573.915 126.488 574.297 126.868C574.679 126.106 575.193 125.372 575.373 124.566C575.437 124.284 574.679 123.82 574.297 123.438C573.885 124.184 573.471 124.93 573.073 125.648ZM407.425 92.564H410.865C411.463 104.826 405.807 116.376 407.125 128.886C407.649 133.858 408.573 137.62 412.507 140.436C413.931 141.454 416.325 143.006 417.209 142.492C418.933 141.488 421.151 139.068 420.979 137.468C420.047 128.782 424.337 119.546 417.975 111.268C416.819 109.766 418.085 105.878 419.047 103.404C421.375 97.41 422.515 90.742 428.587 86.684C430.119 85.662 430.565 83.024 431.509 81.128C429.073 80.366 426.499 78.7 424.227 79.04C420.083 79.66 415.903 81.062 412.203 83.012C411.009 83.642 411.269 87.016 410.865 89.134C409.719 90.278 408.571 91.422 407.425 94.094V92.564C406.533 92.882 405.535 93.058 404.817 93.602C404.603 93.764 405.175 94.958 405.387 95.678C406.067 95.15 406.745 94.624 407.425 92.564ZM551.933 188.752C552.743 193.426 553.329 195.016 554.401 196.152C564.591 206.984 564.917 207.246 554.167 218.652C550.497 222.546 555.351 223.014 555.191 224.956C555.051 226.632 553.387 229.498 552.297 229.544C548.103 229.724 545.703 230 544.111 235.22C543.055 238.692 541.535 244.966 535.083 244.862C526.975 254.09 516.727 262.242 511.361 272.848C506.017 283.41 498.365 295.358 508.661 308.884C517.641 320.682 520.789 336.042 530.497 347.922C533.839 352.014 534.053 359.102 534.579 364.922C535.335 373.254 532.939 376.028 524.229 379.08C523.323 379.398 521.095 378.652 521.105 378.496C521.635 369.58 511.779 371.786 508.561 366.778C505.321 361.734 501.451 357.078 497.679 352.396C492.921 346.488 486.767 341.082 491.993 332.364C492.385 331.71 492.695 330.328 492.363 330.026C486.993 325.126 481.733 320.054 475.949 315.676C473.525 313.842 470.227 311.036 466.953 315.992C463.985 320.484 459.867 319.834 455.279 317.116C445.995 311.616 436.363 308.552 425.965 315.296C424.789 316.058 421.435 312.678 419.101 312.698C416.651 312.718 414.297 314.95 411.753 315.432C408.221 316.102 405.847 315.286 403.189 320.376C400.135 326.23 404.089 326.61 405.671 329.25C406.119 329.998 406.383 330.858 406.731 331.666C405.725 332.008 404.473 332.908 403.757 332.592C400.595 331.2 398.245 330.936 394.367 332.208C388.965 333.98 382.607 333.282 376.855 329.524C373.613 327.408 368.809 321.858 364.173 329.116C363.513 330.148 358.675 330.218 357.711 329.088C351.969 322.358 346.461 326.622 341.525 329.394C333.063 334.144 323.217 336.966 317.213 345.448C310.803 341.798 307.593 347.1 305.297 350.864C302.613 355.268 302.551 361.226 299.993 365.746C296.903 371.212 303.403 375.522 300.683 380.356C299.819 381.89 297.397 384.246 296.721 383.942C285.475 378.882 272.809 377.182 269.075 360.86C266.473 349.484 257.629 339.262 250.441 329.338C247.997 325.966 242.241 324.066 237.725 323.434C234.919 323.04 229.145 326.02 228.933 327.95C228.001 336.42 220.171 333.368 218.885 332.284C215.425 329.368 207.837 332.664 207.701 324.888C207.669 323.054 204.657 321.3 204.573 319.44C204.003 306.726 194.427 299.994 186.365 292.712C178.907 285.974 169.055 286.082 160.953 292.324C157.763 294.782 156.911 292.436 154.667 292.014C146.643 290.504 138.423 291.862 130.221 288.608C126.557 287.156 121.759 286.798 118.147 284.574C107.161 277.808 95.3206 272.502 85.3446 263.966C77.9766 257.664 68.4966 256.734 58.9666 257.176C56.3546 257.296 52.1186 257.938 53.1906 253.594C56.1426 241.63 42.0506 239.102 40.5886 229.778C33.9966 229.364 31.9526 220.262 27.5446 220.322C15.8206 220.478 18.6406 213.042 18.7266 206.914C18.7846 202.716 18.1186 199.33 14.6686 196.47C13.1766 195.232 12.1366 192.868 11.8426 190.876C10.4806 181.664 9.47458 172.398 8.28658 163.16C8.08258 161.568 8.11056 159.62 7.20656 158.496C-2.30544 146.64 1.76456 132.72 1.81056 119.698C1.83256 113.776 6.98257 108.038 8.04457 101.914C9.19857 95.252 8.23857 88.238 8.38857 81.382C8.40857 80.48 9.38856 79.43 10.1806 78.74C24.0906 66.58 25.5986 48.502 31.6986 32.742C33.7366 27.474 33.8286 19.232 30.9546 14.886C27.7226 10 33.2506 9.672 32.5886 6.664C31.9006 3.53 33.6146 3.21799 36.1606 5.31C40.3686 8.76401 45.0246 11.674 49.2306 15.132C51.6966 17.158 52.4686 17.17 53.1146 13.83C54.0086 9.21198 49.9666 2.69598 55.7846 0.373993C58.9306 -0.884003 64.5486 1.24402 67.8046 3.57401C75.4186 9.022 84.5506 6.79199 92.7666 9.84C107.315 15.238 123.599 14.562 138.227 20.528C148.493 18.064 157.711 24.086 167.761 24.158C173.601 24.2 179.413 26.318 185.263 27.368C191.115 28.418 197.899 24.668 202.799 30.784C203.023 31.062 203.903 30.78 204.473 30.824C218.907 31.96 233.347 33.02 247.769 34.276C259.347 35.286 270.881 36.976 282.475 37.554C293.913 38.126 305.405 37.81 316.869 37.598C320.237 37.536 325.697 39.816 324.849 32.626C326.043 32.642 327.777 32.17 328.327 32.772C329.741 34.318 330.637 36.338 331.729 38.176C333.863 41.768 335.499 46.862 340.705 41.11C351.501 48.836 364.691 46.796 376.627 49.874C378.165 50.27 379.715 50.746 381.123 51.456C381.885 51.842 382.357 52.798 382.959 53.496C381.997 53.94 381.029 54.372 380.075 54.834C373.269 58.128 365.793 60.586 362.697 69.318V68.552C361.805 68.87 360.807 69.046 360.089 69.59C359.875 69.752 360.447 70.946 360.657 71.666C361.337 71.138 362.017 70.61 362.697 69.318C364.413 68.552 366.933 67.82 367.717 68.672C372.747 74.146 377.283 72.748 382.211 68.604C385.091 66.18 388.481 64.368 391.489 62.082C393.717 60.388 393.253 60.752 397.869 63.964C404.375 68.492 413.143 71.838 419.527 67.744C428.925 61.718 433.543 68.578 439.779 71.836C440.367 72.142 440.561 74.886 440.081 75.202C438.815 76.034 437.077 76.152 435.527 76.554C436.543 77.316 437.473 78.244 438.587 78.818C452.147 85.804 452.153 85.792 452.491 104.4C451.951 104.754 451.251 103.806 450.551 102.856C449.939 103.644 448.789 104.462 448.829 105.216C448.903 106.638 449.663 108.022 450.139 109.424C450.935 108.396 451.731 107.368 452.491 104.4C455.579 104.362 460.361 99.318 462.991 107.088C465.263 113.804 468.215 119.214 462.559 124.962C458.405 129.188 457.215 133.21 461.509 137.922C463.499 140.104 465.425 141.828 468.631 139.696C470.359 138.544 472.533 138.086 474.421 137.142C485.343 131.682 494.703 124.142 503.097 115.374C503.303 115.16 502.081 113.87 501.965 113.022C501.035 106.208 502.579 103.608 507.933 102.878C509.057 102.726 510.221 102.906 511.363 102.848C525.745 102.126 525.745 102.122 527.849 87.182C528.829 80.216 542.207 69.408 550.849 68.544C555.777 68.05 561.067 68.428 565.545 66.722C576.695 62.48 583.217 54.358 582.907 41.828C582.851 39.548 582.829 37.262 582.913 34.984C583.163 28.154 589.443 20.038 595.685 20.992C599.803 21.62 603.241 26.684 606.983 29.76C604.389 40.196 612.575 44.888 618.419 50.676C621.579 53.804 621.799 56.378 618.263 58.974C614.787 61.524 611.393 64.428 607.497 66.104C603.047 68.018 604.499 73.12 599.929 75.874C587.681 83.254 587.169 92.828 596.001 103.984C597.987 106.49 599.293 106.004 600.979 103.842C601.191 103.57 603.137 104.008 603.229 104.376C604.251 108.492 600.851 111.71 595.321 113.614C590.937 115.124 586.959 117.816 582.817 120.012C578.859 122.112 583.941 128.194 578.315 129.832C574.279 131.006 570.217 132.566 566.707 134.8C565.517 135.558 565.541 138.952 565.777 141.056C566.539 147.86 564.813 154.126 561.533 159.852C560.837 161.064 557.495 160.772 554.607 161.172H555.373C555.055 160.284 554.879 159.288 554.333 158.572C554.171 158.358 552.973 158.928 552.251 159.14C552.779 159.818 553.311 160.494 554.607 161.172C560.899 172.728 560.223 178.79 551.933 188.752C551.933 184.908 552.075 184.312 551.907 183.82C551.307 182.06 550.601 180.336 549.937 178.598C549.455 180.596 548.827 182.572 548.539 184.596C548.309 186.21 548.289 187.92 548.571 189.516C548.733 190.43 549.685 191.206 550.281 192.044C550.831 191.496 551.773 191 551.857 190.388C552.081 188.772 551.933 187.104 551.933 188.752Z" fill="#323233"/>
</svg>
