<svg width="27" height="23" viewBox="0 0 27 23" fill="none" xmlns="http://www.w3.org/2000/svg">
<path d="M19.6378 13.445C13.6798 13.445 8.34176 13.421 3.00376 13.459C1.43776 13.471 0.251763 13.281 0.277763 11.283C0.303763 9.355 1.50776 9.273 2.94576 9.279C8.28376 9.303 13.6218 9.28899 19.5758 9.28899C17.7238 7.43299 16.2338 5.881 14.6758 4.399C13.5478 3.329 13.1198 2.359 14.4478 1.095C15.7118 -0.111004 16.6138 0.416996 17.6118 1.431C20.3358 4.195 23.0618 6.95899 25.8618 9.64699C27.1638 10.897 27.1238 11.875 25.8398 13.109C23.0418 15.795 20.3138 18.559 17.5918 21.325C16.5818 22.349 15.6738 22.823 14.4238 21.621C13.0798 20.327 13.6078 19.375 14.7178 18.327C16.2598 16.867 17.7378 15.339 19.6378 13.445Z" fill="#111111"/>
</svg>
