<svg width="31" height="36" viewBox="0 0 31 36" fill="none" xmlns="http://www.w3.org/2000/svg">
<path d="M11.5586 14.1656C9.67661 14.4236 9.67461 14.4236 9.67461 16.1536C9.67261 18.0096 9.70261 19.8656 9.66261 21.7216C9.63861 22.7376 9.98661 23.1796 11.0646 23.1636C14.2506 23.1176 17.4406 23.1176 20.6286 23.1636C21.7066 23.1796 22.0486 22.7336 22.0226 21.7176C21.9786 19.9436 22.0106 18.1676 22.0106 16.3916C22.0106 14.5536 22.0106 14.5536 20.2306 14.0816C20.1906 13.2996 20.2026 12.4916 20.0946 11.7016C19.7646 9.28565 17.9526 7.76965 15.6026 7.88365C13.3446 7.99565 11.6226 9.83365 11.5606 12.2076C11.5446 12.8456 11.5586 13.4856 11.5586 14.1656ZM0.810607 10.0376C0.810607 8.50365 0.842607 6.96565 0.798607 5.43165C0.774607 4.58365 0.992607 4.11365 1.92261 3.91565C6.46261 2.95165 10.9886 1.91765 15.5206 0.919647C15.7486 0.869648 16.0066 0.877647 16.2346 0.927647C20.6906 1.90165 25.1406 2.90565 29.6006 3.85565C30.6006 4.06765 31.0146 4.48965 30.9766 5.56565C30.8566 8.87565 31.0786 12.2136 30.7286 15.4936C30.0206 22.1616 26.8406 27.5576 21.5446 31.6776C19.9826 32.8936 18.3906 34.0736 16.7546 35.1836C16.3746 35.4416 15.5726 35.5896 15.2746 35.3696C12.1286 33.0476 8.75861 30.9876 6.24461 27.8996C2.43861 23.2276 0.640607 17.8776 0.808607 11.8576C0.824607 11.2516 0.810607 10.6456 0.810607 10.0376Z" fill="white"/>
</svg>
