<svg width="109" height="22" viewBox="0 0 109 22" fill="none" xmlns="http://www.w3.org/2000/svg">
<path d="M10.2446 1.9926C10.4484 1.36542 11.3357 1.36541 11.5395 1.9926L13.1846 7.05583C13.2758 7.33631 13.5371 7.52622 13.8321 7.52622H19.1559C19.8153 7.52622 20.0895 8.37009 19.556 8.75771L15.2489 11.887C15.0104 12.0603 14.9105 12.3676 15.0017 12.6481L16.6468 17.7113C16.8506 18.3385 16.1327 18.86 15.5992 18.4724L11.2922 15.3432C11.0536 15.1698 10.7305 15.1698 10.4919 15.3432L6.18487 18.4724C5.65135 18.86 4.93351 18.3385 5.1373 17.7113L6.78244 12.6481C6.87357 12.3676 6.77374 12.0603 6.53514 11.887L2.2281 8.75771C1.69459 8.37009 1.96877 7.52622 2.62824 7.52622H7.95203C8.24695 7.52622 8.50833 7.33631 8.59947 7.05583L10.2446 1.9926Z" fill="#FFA513"/>
<path d="M32.0288 1.9926C32.2326 1.36542 33.1199 1.36541 33.3237 1.9926L34.9688 7.05583C35.0599 7.33631 35.3213 7.52622 35.6162 7.52622H40.94C41.5995 7.52622 41.8737 8.37009 41.3402 8.75771L37.0331 11.887C36.7945 12.0603 36.6947 12.3676 36.7858 12.6481L38.431 17.7113C38.6348 18.3385 37.9169 18.86 37.3834 18.4724L33.0764 15.3432C32.8378 15.1698 32.5147 15.1698 32.2761 15.3432L27.969 18.4724C27.4355 18.86 26.7177 18.3385 26.9215 17.7113L28.5666 12.6481C28.6578 12.3676 28.5579 12.0603 28.3193 11.887L24.0123 8.75771C23.4788 8.37009 23.753 7.52622 24.4124 7.52622H29.7362C30.0311 7.52622 30.2925 7.33631 30.3836 7.05583L32.0288 1.9926Z" fill="#FFA513"/>
<path d="M53.8127 1.9926C54.0165 1.36542 54.9038 1.36541 55.1076 1.9926L56.7527 7.05583C56.8439 7.33631 57.1053 7.52622 57.4002 7.52622H62.724C63.3834 7.52622 63.6576 8.37009 63.1241 8.75771L58.8171 11.887C58.5785 12.0603 58.4786 12.3676 58.5698 12.6481L60.2149 17.7113C60.4187 18.3385 59.7009 18.86 59.1673 18.4724L54.8603 15.3432C54.6217 15.1698 54.2986 15.1698 54.06 15.3432L49.753 18.4724C49.2195 18.86 48.5016 18.3385 48.7054 17.7113L50.3506 12.6481C50.4417 12.3676 50.3419 12.0603 50.1033 11.887L45.7962 8.75771C45.2627 8.37009 45.5369 7.52622 46.1964 7.52622H51.5201C51.8151 7.52622 52.0764 7.33631 52.1676 7.05583L53.8127 1.9926Z" fill="#FFA513"/>
<path d="M75.5969 1.9926C75.8007 1.36542 76.688 1.36541 76.8918 1.9926L78.5369 7.05583C78.6281 7.33631 78.8894 7.52622 79.1844 7.52622H84.5081C85.1676 7.52622 85.4418 8.37009 84.9083 8.75771L80.6012 11.887C80.3626 12.0603 80.2628 12.3676 80.3539 12.6481L81.9991 17.7113C82.2029 18.3385 81.485 18.86 80.9515 18.4724L76.6445 15.3432C76.4059 15.1698 76.0828 15.1698 75.8442 15.3432L71.5372 18.4724C71.0036 18.86 70.2858 18.3385 70.4896 17.7113L72.1347 12.6481C72.2259 12.3676 72.126 12.0603 71.8874 11.887L67.5804 8.75771C67.0469 8.37009 67.3211 7.52622 67.9805 7.52622H73.3043C73.5992 7.52622 73.8606 7.33631 73.9518 7.05583L75.5969 1.9926Z" fill="#FFA513"/>
<path opacity="0.2" d="M97.3811 1.9926C97.5849 1.36542 98.4722 1.36541 98.676 1.9926L100.321 7.05583C100.412 7.33631 100.674 7.52622 100.969 7.52622H106.292C106.952 7.52622 107.226 8.37009 106.692 8.75771L102.385 11.887C102.147 12.0603 102.047 12.3676 102.138 12.6481L103.783 17.7113C103.987 18.3385 103.269 18.86 102.736 18.4724L98.4287 15.3432C98.1901 15.1698 97.867 15.1698 97.6284 15.3432L93.3213 18.4724C92.7878 18.86 92.07 18.3385 92.2738 17.7113L93.9189 12.6481C94.01 12.3676 93.9102 12.0603 93.6716 11.887L89.3646 8.75771C88.8311 8.37009 89.1052 7.52622 89.7647 7.52622H95.0885C95.3834 7.52622 95.6448 7.33631 95.7359 7.05583L97.3811 1.9926Z" fill="#FFA513"/>
</svg>
