<svg width="228" height="23" viewBox="0 0 228 23" fill="none" xmlns="http://www.w3.org/2000/svg">
<path d="M7.77 22L0.81 1H4.86L11.07 19.99H9.06L15.51 1H19.11L25.38 19.99H23.43L29.79 1H33.51L26.55 22H22.41L16.68 4.87H17.76L11.94 22H7.77ZM33.0434 22L42.4934 1H46.3334L55.8134 22H51.7334L43.6034 3.07H45.1634L37.0634 22H33.0434ZM37.3934 17.14L38.4434 14.08H49.7834L50.8334 17.14H37.3934ZM61.6894 22V4.3H54.7294V1H72.5494V4.3H65.5894V22H61.6894ZM84.9033 22.3C83.3033 22.3 81.8133 22.04 80.4333 21.52C79.0733 20.98 77.8833 20.23 76.8633 19.27C75.8633 18.29 75.0833 17.14 74.5233 15.82C73.9633 14.5 73.6833 13.06 73.6833 11.5C73.6833 9.94 73.9633 8.5 74.5233 7.18C75.0833 5.86 75.8733 4.72 76.8933 3.76C77.9133 2.78 79.1033 2.03 80.4633 1.51C81.8233 0.970002 83.3133 0.700002 84.9333 0.700002C86.6533 0.700002 88.2233 1 89.6433 1.6C91.0633 2.18 92.2633 3.05 93.2433 4.21L90.7233 6.58C89.9633 5.76 89.1133 5.15 88.1733 4.75C87.2333 4.33 86.2133 4.12 85.1133 4.12C84.0133 4.12 83.0033 4.3 82.0833 4.66C81.1833 5.02 80.3933 5.53 79.7133 6.19C79.0533 6.85 78.5333 7.63 78.1533 8.53C77.7933 9.43 77.6133 10.42 77.6133 11.5C77.6133 12.58 77.7933 13.57 78.1533 14.47C78.5333 15.37 79.0533 16.15 79.7133 16.81C80.3933 17.47 81.1833 17.98 82.0833 18.34C83.0033 18.7 84.0133 18.88 85.1133 18.88C86.2133 18.88 87.2333 18.68 88.1733 18.28C89.1133 17.86 89.9633 17.23 90.7233 16.39L93.2433 18.79C92.2633 19.93 91.0633 20.8 89.6433 21.4C88.2233 22 86.6433 22.3 84.9033 22.3ZM111.74 1H115.64V22H111.74V1ZM100.88 22H96.9801V1H100.88V22ZM112.04 13H100.55V9.67H112.04V13ZM121.267 22V1H131.107C133.627 1 135.547 1.5 136.867 2.5C138.187 3.48 138.847 4.8 138.847 6.46C138.847 7.58 138.587 8.54 138.067 9.34C137.547 10.12 136.847 10.73 135.967 11.17C135.107 11.59 134.167 11.8 133.147 11.8L133.687 10.72C134.867 10.72 135.927 10.94 136.867 11.38C137.807 11.8 138.547 12.42 139.087 13.24C139.647 14.06 139.927 15.08 139.927 16.3C139.927 18.1 139.237 19.5 137.857 20.5C136.477 21.5 134.427 22 131.707 22H121.267ZM125.167 18.94H131.467C132.927 18.94 134.047 18.7 134.827 18.22C135.607 17.74 135.997 16.97 135.997 15.91C135.997 14.87 135.607 14.11 134.827 13.63C134.047 13.13 132.927 12.88 131.467 12.88H124.867V9.85H130.687C132.047 9.85 133.087 9.61 133.807 9.13C134.547 8.65 134.917 7.93 134.917 6.97C134.917 5.99 134.547 5.26 133.807 4.78C133.087 4.3 132.047 4.06 130.687 4.06H125.167V18.94ZM144.09 22V1H147.99V18.7H158.97V22H144.09ZM171.508 22.3C169.868 22.3 168.358 22.03 166.978 21.49C165.598 20.95 164.398 20.2 163.378 19.24C162.358 18.26 161.568 17.12 161.008 15.82C160.448 14.5 160.168 13.06 160.168 11.5C160.168 9.94 160.448 8.51 161.008 7.21C161.568 5.89 162.358 4.75 163.378 3.79C164.398 2.81 165.598 2.05 166.978 1.51C168.358 0.970002 169.858 0.700002 171.478 0.700002C173.118 0.700002 174.618 0.970002 175.978 1.51C177.358 2.05 178.558 2.81 179.578 3.79C180.598 4.75 181.388 5.89 181.948 7.21C182.508 8.51 182.788 9.94 182.788 11.5C182.788 13.06 182.508 14.5 181.948 15.82C181.388 17.14 180.598 18.28 179.578 19.24C178.558 20.2 177.358 20.95 175.978 21.49C174.618 22.03 173.128 22.3 171.508 22.3ZM171.478 18.88C172.538 18.88 173.518 18.7 174.418 18.34C175.318 17.98 176.098 17.47 176.758 16.81C177.418 16.13 177.928 15.35 178.288 14.47C178.668 13.57 178.858 12.58 178.858 11.5C178.858 10.42 178.668 9.44 178.288 8.56C177.928 7.66 177.418 6.88 176.758 6.22C176.098 5.54 175.318 5.02 174.418 4.66C173.518 4.3 172.538 4.12 171.478 4.12C170.418 4.12 169.438 4.3 168.538 4.66C167.658 5.02 166.878 5.54 166.198 6.22C165.538 6.88 165.018 7.66 164.638 8.56C164.278 9.44 164.098 10.42 164.098 11.5C164.098 12.56 164.278 13.54 164.638 14.44C165.018 15.34 165.538 16.13 166.198 16.81C166.858 17.47 167.638 17.98 168.538 18.34C169.438 18.7 170.418 18.88 171.478 18.88ZM196.642 22.3C195.042 22.3 193.552 22.04 192.172 21.52C190.812 20.98 189.622 20.23 188.602 19.27C187.602 18.29 186.822 17.14 186.262 15.82C185.702 14.5 185.422 13.06 185.422 11.5C185.422 9.94 185.702 8.5 186.262 7.18C186.822 5.86 187.612 4.72 188.632 3.76C189.652 2.78 190.842 2.03 192.202 1.51C193.562 0.970002 195.052 0.700002 196.672 0.700002C198.392 0.700002 199.962 1 201.382 1.6C202.802 2.18 204.002 3.05 204.982 4.21L202.462 6.58C201.702 5.76 200.852 5.15 199.912 4.75C198.972 4.33 197.952 4.12 196.852 4.12C195.752 4.12 194.742 4.3 193.822 4.66C192.922 5.02 192.132 5.53 191.452 6.19C190.792 6.85 190.272 7.63 189.892 8.53C189.532 9.43 189.352 10.42 189.352 11.5C189.352 12.58 189.532 13.57 189.892 14.47C190.272 15.37 190.792 16.15 191.452 16.81C192.132 17.47 192.922 17.98 193.822 18.34C194.742 18.7 195.752 18.88 196.852 18.88C197.952 18.88 198.972 18.68 199.912 18.28C200.852 17.86 201.702 17.23 202.462 16.39L204.982 18.79C204.002 19.93 202.802 20.8 201.382 21.4C199.962 22 198.382 22.3 196.642 22.3ZM212.198 17.05L211.988 12.43L222.998 1H227.378L218.228 10.72L216.068 13.09L212.198 17.05ZM208.718 22V1H212.618V22H208.718ZM223.358 22L215.318 12.43L217.898 9.58L227.918 22H223.358Z" fill="#2B2B2B"/>
</svg>
