<svg width="40" height="16" viewBox="0 0 40 16" fill="none" xmlns="http://www.w3.org/2000/svg">
<path d="M0 14V2H1.40625V14H0ZM2.0982 13.9915V2H2.8125V13.9915H2.0982ZM4.21875 13.9915V2H4.9107V13.9915H4.21875ZM7.7232 13.9915V2H8.41516V13.9915H7.7232ZM10.5357 13.9915V2H11.9196V13.9915H10.5357ZM14.0402 13.9915V2H14.7321V13.9915H14.0402ZM15.4464 13.9915V2H16.1384V13.9915H15.4464ZM16.8527 13.9915V2H17.5446V13.9915H16.8527ZM19.6429 13.9915V2H21.0491V13.9915H19.6429ZM23.1473 13.9915V2H24.5536V13.9915H23.1473ZM25.9598 13.9915V2H27.3661V13.9915H25.9598ZM28.7723 13.9915V2H30.1787V13.9915H28.7723ZM30.8705 13.9915V2H32.2768V13.9915H30.8705ZM34.3973 13.9915V2H36.4955V13.9915H34.3973ZM37.1875 13.9915V2H37.9018V13.9915H37.1875ZM38.5938 14V2H40V14H38.5938Z" fill="black"/>
</svg>
