<svg width="44" height="43" viewBox="0 0 44 43" fill="none" xmlns="http://www.w3.org/2000/svg">
<rect x="0.632812" y="0.191284" width="42.6308" height="42.6308" rx="21.3154" fill="#B6E22E"/>
<g clip-path="url(#clip0_2405_11240)">
<path d="M30.5554 13.513L25.6322 13.513V12.2876C25.6322 11.9479 25.357 11.6727 25.0173 11.6727C24.6776 11.6727 24.4024 11.9479 24.4024 12.2876V13.5127H19.4835V12.2876C19.4835 11.9479 19.2083 11.6727 18.8686 11.6727C18.5289 11.6727 18.2537 11.9479 18.2537 12.2876V13.5127H13.3391C12.66 13.5127 12.1094 14.0633 12.1094 14.7425V30.1141C12.1094 30.7932 12.66 31.3439 13.3391 31.3439H30.5554C31.2345 31.3439 31.7851 30.7932 31.7851 30.1141V14.7425C31.7851 14.0636 31.2345 13.513 30.5554 13.513ZM30.5554 30.1141H13.3391V14.7425H18.2537V15.3619C18.2537 15.7016 18.5289 15.9768 18.8686 15.9768C19.2083 15.9768 19.4835 15.7016 19.4835 15.3619V14.7428H24.4024V15.3622C24.4024 15.702 24.6776 15.9771 25.0173 15.9771C25.357 15.9771 25.6322 15.702 25.6322 15.3622V14.7428H30.5554V30.1141ZM26.2513 21.5063H27.4811C27.8205 21.5063 28.0959 21.2308 28.0959 20.8914V19.6617C28.0959 19.3223 27.8205 19.0468 27.4811 19.0468H26.2513C25.9119 19.0468 25.6365 19.3223 25.6365 19.6617V20.8914C25.6365 21.2308 25.9119 21.5063 26.2513 21.5063ZM26.2513 26.4249H27.4811C27.8205 26.4249 28.0959 26.1498 28.0959 25.8101V24.5803C28.0959 24.2409 27.8205 23.9655 27.4811 23.9655H26.2513C25.9119 23.9655 25.6365 24.2409 25.6365 24.5803V25.8101C25.6365 26.1501 25.9119 26.4249 26.2513 26.4249ZM22.5621 23.9655H21.3324C20.993 23.9655 20.7175 24.2409 20.7175 24.5803V25.8101C20.7175 26.1498 20.993 26.4249 21.3324 26.4249H22.5621C22.9015 26.4249 23.177 26.1498 23.177 25.8101V24.5803C23.177 24.2412 22.9015 23.9655 22.5621 23.9655ZM22.5621 19.0468H21.3324C20.993 19.0468 20.7175 19.3223 20.7175 19.6617V20.8914C20.7175 21.2308 20.993 21.5063 21.3324 21.5063H22.5621C22.9015 21.5063 23.177 21.2308 23.177 20.8914V19.6617C23.177 19.322 22.9015 19.0468 22.5621 19.0468ZM17.6432 19.0468H16.4134C16.074 19.0468 15.7986 19.3223 15.7986 19.6617V20.8914C15.7986 21.2308 16.074 21.5063 16.4134 21.5063H17.6432C17.9826 21.5063 18.2581 21.2308 18.2581 20.8914V19.6617C18.2581 19.322 17.9826 19.0468 17.6432 19.0468ZM17.6432 23.9655H16.4134C16.074 23.9655 15.7986 24.2409 15.7986 24.5803V25.8101C15.7986 26.1498 16.074 26.4249 16.4134 26.4249H17.6432C17.9826 26.4249 18.2581 26.1498 18.2581 25.8101V24.5803C18.2581 24.2412 17.9826 23.9655 17.6432 23.9655Z" fill="#111111"/>
</g>
<defs>
<clipPath id="clip0_2405_11240">
<rect width="19.6758" height="19.6758" fill="white" transform="translate(12.1094 11.6688)"/>
</clipPath>
</defs>
</svg>
