<svg width="17" height="18" viewBox="0 0 17 18" fill="none" xmlns="http://www.w3.org/2000/svg">
<path fill-rule="evenodd" clip-rule="evenodd" d="M2.09589 5.51581C2.14412 5.46746 2.20141 5.4291 2.26449 5.40293C2.32756 5.37675 2.39518 5.36328 2.46347 5.36328C2.53177 5.36328 2.59939 5.37675 2.66246 5.40293C2.72554 5.4291 2.78283 5.46746 2.83106 5.51581L8.69372 11.3795L14.5564 5.51581C14.6047 5.46754 14.662 5.42925 14.725 5.40312C14.7881 5.377 14.8557 5.36355 14.924 5.36355C14.9922 5.36355 15.0598 5.377 15.1229 5.40312C15.186 5.42925 15.2433 5.46754 15.2916 5.51581C15.3398 5.56408 15.3781 5.62139 15.4042 5.68446C15.4304 5.74753 15.4438 5.81513 15.4438 5.8834C15.4438 5.95166 15.4304 6.01926 15.4042 6.08233C15.3781 6.1454 15.3398 6.20271 15.2916 6.25098L9.06131 12.4812C9.01308 12.5296 8.95579 12.5679 8.89271 12.5941C8.82963 12.6203 8.76201 12.6338 8.69372 12.6338C8.62543 12.6338 8.55781 12.6203 8.49473 12.5941C8.43166 12.5679 8.37437 12.5296 8.32614 12.4812L2.09589 6.25098C2.04754 6.20275 2.00918 6.14546 1.98301 6.08238C1.95683 6.01931 1.94336 5.95169 1.94336 5.8834C1.94336 5.81511 1.95683 5.74749 1.98301 5.68441C2.00918 5.62133 2.04754 5.56404 2.09589 5.51581Z" fill="black"/>
</svg>
