<svg width="25" height="25" viewBox="0 0 25 25" fill="none" xmlns="http://www.w3.org/2000/svg">
<path d="M21.9561 12.9119C21.9561 13.2102 21.8375 13.4964 21.6265 13.7074C21.4156 13.9183 21.1294 14.0369 20.8311 14.0369H13.7061V21.1619C13.7061 21.4602 13.5875 21.7464 13.3765 21.9574C13.1656 22.1683 12.8794 22.2869 12.5811 22.2869C12.2827 22.2869 11.9965 22.1683 11.7856 21.9574C11.5746 21.7464 11.4561 21.4602 11.4561 21.1619V14.0369H4.33105C4.03269 14.0369 3.74654 13.9183 3.53556 13.7074C3.32458 13.4964 3.20605 13.2102 3.20605 12.9119C3.20605 12.6135 3.32458 12.3273 3.53556 12.1164C3.74654 11.9054 4.03269 11.7869 4.33105 11.7869H11.4561V4.66187C11.4561 4.3635 11.5746 4.07735 11.7856 3.86637C11.9965 3.65539 12.2827 3.53687 12.5811 3.53687C12.8794 3.53687 13.1656 3.65539 13.3765 3.86637C13.5875 4.07735 13.7061 4.3635 13.7061 4.66187V11.7869H20.8311C21.1294 11.7869 21.4156 11.9054 21.6265 12.1164C21.8375 12.3273 21.9561 12.6135 21.9561 12.9119Z" fill="black"/>
</svg>
