<svg width="140" height="24" viewBox="0 0 140 24" fill="none" xmlns="http://www.w3.org/2000/svg">
<path d="M12.0263 0.578979L15.2248 7.46618L22.7633 8.37983L17.2015 13.55L18.6621 21.0019L12.0263 17.31L5.39051 21.0019L6.8511 13.55L1.28936 8.37983L8.82786 7.46618L12.0263 0.578979Z" fill="#FFC633"/>
<path d="M41.0922 0.578979L44.2907 7.46618L51.8292 8.37983L46.2674 13.55L47.728 21.0019L41.0922 17.31L34.4564 21.0019L35.917 13.55L30.3553 8.37983L37.8938 7.46618L41.0922 0.578979Z" fill="#FFC633"/>
<path d="M70.1577 0.578979L73.3561 7.46618L80.8946 8.37983L75.3329 13.55L76.7935 21.0019L70.1577 17.31L63.5219 21.0019L64.9824 13.55L59.4207 8.37983L66.9592 7.46618L70.1577 0.578979Z" fill="#FFC633"/>
<path d="M99.2236 0.578979L102.422 7.46618L109.961 8.37983L104.399 13.55L105.859 21.0019L99.2236 17.31L92.5878 21.0019L94.0484 13.55L88.4866 8.37983L96.0251 7.46618L99.2236 0.578979Z" fill="#FFC633"/>
<path opacity="0.2" d="M128.289 0.578979L131.488 7.46618L139.026 8.37983L133.465 13.55L134.925 21.0019L128.289 17.31L121.654 21.0019L123.114 13.55L117.553 8.37983L125.091 7.46618L128.289 0.578979Z" fill="#FFC633"/>
</svg>
