<svg width="18" height="18" viewBox="0 0 18 18" fill="none" xmlns="http://www.w3.org/2000/svg">
<path d="M6.91895 13.002C5.10228 13.002 3.56495 12.3726 2.30695 11.114C1.04895 9.85529 0.419613 8.31795 0.418946 6.50195C0.418279 4.68595 1.04761 3.14862 2.30695 1.88995C3.56628 0.631287 5.10361 0.00195312 6.91895 0.00195312C8.73428 0.00195312 10.2719 0.631287 11.5319 1.88995C12.7919 3.14862 13.4209 4.68595 13.4189 6.50195C13.4189 7.23529 13.3023 7.92695 13.0689 8.57695C12.8356 9.22695 12.5189 9.80195 12.1189 10.302L17.7189 15.902C17.9023 16.0853 17.9939 16.3186 17.9939 16.602C17.9939 16.8853 17.9023 17.1186 17.7189 17.302C17.5356 17.4853 17.3023 17.577 17.0189 17.577C16.7356 17.577 16.5023 17.4853 16.3189 17.302L10.7189 11.702C10.2189 12.102 9.64395 12.4186 8.99395 12.652C8.34395 12.8853 7.65228 13.002 6.91895 13.002ZM6.91895 11.002C8.16895 11.002 9.23161 10.5646 10.1069 9.68995C10.9823 8.81529 11.4196 7.75262 11.4189 6.50195C11.4183 5.25129 10.9809 4.18895 10.1069 3.31495C9.23295 2.44095 8.17028 2.00329 6.91895 2.00195C5.66761 2.00062 4.60528 2.43829 3.73195 3.31495C2.85861 4.19162 2.42095 5.25395 2.41895 6.50195C2.41695 7.74995 2.85461 8.81262 3.73195 9.68995C4.60928 10.5673 5.67161 11.0046 6.91895 11.002Z" fill="#A1A1A1"/>
</svg>
