<svg width="37" height="36" viewBox="0 0 37 36" fill="none" xmlns="http://www.w3.org/2000/svg">
<g clip-path="url(#clip0_2405_11328)">
<path d="M16.4688 5.05C18.6349 5.04802 20.7529 5.68855 22.555 6.89054C24.357 8.09254 25.7621 9.80201 26.5924 11.8027C27.4227 13.8034 27.641 16.0054 27.2196 18.1301C26.7982 20.2549 25.7561 22.2069 24.2251 23.7393C22.6941 25.2717 20.743 26.3155 18.6187 26.7389C16.4943 27.1622 14.2921 26.9459 12.2907 26.1174C10.2893 25.2889 8.5785 23.8855 7.37486 22.0845C6.17122 20.2836 5.52876 18.1661 5.52876 16C5.54189 13.1017 6.69839 10.3256 8.74692 8.27522C10.7954 6.22482 13.5704 5.06578 16.4688 5.05ZM16.4688 3C13.8976 3 11.3842 3.76244 9.24634 5.1909C7.1085 6.61935 5.44226 8.64968 4.45832 11.0251C3.47438 13.4006 3.21694 16.0144 3.71855 18.5362C4.22016 21.0579 5.45828 23.3743 7.27637 25.1924C9.09445 27.0105 11.4108 28.2486 13.9326 28.7502C16.4543 29.2518 19.0682 28.9944 21.4436 28.0104C23.8191 27.0265 25.8494 25.3603 27.2779 23.2224C28.7063 21.0846 29.4688 18.5712 29.4688 16C29.4688 12.5522 28.0991 9.24558 25.6611 6.80761C23.2232 4.36964 19.9166 3 16.4688 3Z" fill="black" fill-opacity="0.8"/>
<path d="M35.1377 33.2911L27.7677 25.8711L26.3477 27.2811L33.7177 34.7011C33.8102 34.7943 33.9203 34.8684 34.0415 34.9191C34.1627 34.9698 34.2927 34.9962 34.4241 34.9966C34.5555 34.9971 34.6857 34.9717 34.8073 34.9218C34.9289 34.872 35.0394 34.7987 35.1327 34.7061C35.2259 34.6135 35.3 34.5035 35.3507 34.3823C35.4014 34.261 35.4278 34.131 35.4282 33.9996C35.4287 33.8682 35.4033 33.738 35.3534 33.6165C35.3036 33.4949 35.2302 33.3843 35.1377 33.2911Z" fill="black" fill-opacity="0.8"/>
</g>
<defs>
<clipPath id="clip0_2405_11328">
<rect width="36" height="36" fill="white" transform="translate(0.138672)"/>
</clipPath>
</defs>
</svg>
