<svg width="43" height="43" viewBox="0 0 43 43" fill="none" xmlns="http://www.w3.org/2000/svg">
<rect x="0.663086" width="42.1393" height="42.1393" rx="21.0696" fill="white"/>
<path d="M19.7167 24.6023L24.9466 21.0689L19.7167 17.5354V24.6023ZM31.3655 15.3801C31.4965 15.9336 31.5872 16.6756 31.6476 17.6179C31.7182 18.5601 31.7484 19.3728 31.7484 20.0795L31.8088 21.0689C31.8088 23.6483 31.6476 25.5445 31.3655 26.7577C31.1135 27.8177 30.5291 28.5008 29.6222 28.7953C29.1486 28.9484 28.282 29.0544 26.9518 29.1251C25.6419 29.2075 24.4427 29.2428 23.3343 29.2428L21.7321 29.3135C17.5099 29.3135 14.8798 29.1251 13.8419 28.7953C12.935 28.5008 12.3506 27.8177 12.0987 26.7577C11.9677 26.2041 11.877 25.4621 11.8165 24.5198C11.746 23.5776 11.7157 22.7649 11.7157 22.0582L11.6553 21.0689C11.6553 18.4895 11.8165 16.5932 12.0987 15.3801C12.3506 14.32 12.935 13.6369 13.8419 13.3425C14.3155 13.1893 15.1821 13.0833 16.5123 13.0127C17.8223 12.9302 19.0214 12.8949 20.1298 12.8949L21.7321 12.8242C25.9542 12.8242 28.5843 13.0127 29.6222 13.3425C30.5291 13.6369 31.1135 14.32 31.3655 15.3801Z" fill="#2B2B2B"/>
</svg>
